<svg xmlns="http://www.w3.org/2000/svg" width="1156.1" height="226.1" viewBox="0 0 1156.1 226.1">
  <path id="Path_1" data-name="Path 1" d="M88.1,71.8V286h28.5V187.9H215v-24H116.6V95.8H228.8v-24Zm172.2,0V286h28.5V194.5h69.6q10.5,0,16.8,3.15a28.126,28.126,0,0,1,10.2,8.4,34.823,34.823,0,0,1,5.7,12.3q1.8,7.05,3,14.85a104.562,104.562,0,0,1,1.8,15.9q.3,8.1.6,15.15A92.444,92.444,0,0,0,397.85,277a17.887,17.887,0,0,0,4.05,9h31.8a36.615,36.615,0,0,1-6.75-12.45,97.58,97.58,0,0,1-3.45-14.85,138.092,138.092,0,0,1-1.5-15.9q-.3-8.1-.9-15.9a137.88,137.88,0,0,0-2.55-15,45.526,45.526,0,0,0-5.1-13.05,32.879,32.879,0,0,0-9.3-10.05q-5.85-4.2-15.15-6v-.6q19.5-5.4,28.35-20.1t8.85-34.2q0-26.1-17.25-41.1t-47.85-15Zm87.9,98.7H288.8V95.8h70.8q20.1,0,29.1,10.2t9,26.4q0,11.7-4.05,19.05a32.041,32.041,0,0,1-10.8,11.7A41.238,41.238,0,0,1,367.1,169,114.881,114.881,0,0,1,348.2,170.5Zm154.5,27L539,97.6h.6l35.7,99.9ZM524,71.8,440.6,286h29.1l24-64.5h90.6L607.7,286h31.5L555.5,71.8Zm135.9,0V286h27V114.1h.6L799.4,286h31.2V71.8h-27V245.5H803L690.2,71.8Zm367.5,64.5h28.5a79.7,79.7,0,0,0-10.2-30.15,74.18,74.18,0,0,0-19.5-21.75,85.477,85.477,0,0,0-26.7-13.2,110.1,110.1,0,0,0-31.8-4.5q-24.6,0-43.65,8.85a90.209,90.209,0,0,0-31.8,24.15,105.909,105.909,0,0,0-19.35,35.85,142.907,142.907,0,0,0-6.6,43.95,151.04,151.04,0,0,0,6.15,43.8,101.166,101.166,0,0,0,18.45,35.4,85.438,85.438,0,0,0,30.9,23.55q18.6,8.55,43.5,8.55,41.1,0,64.8-22.5t27.9-63h-28.5a81.733,81.733,0,0,1-5.4,24.6,59.372,59.372,0,0,1-12.45,19.65,56.7,56.7,0,0,1-18.9,12.9,63.584,63.584,0,0,1-25.05,4.65q-19.2,0-33-7.2a64.448,64.448,0,0,1-22.65-19.35A82.876,82.876,0,0,1,899,212.05a138.8,138.8,0,0,1-4.2-34.65A124.087,124.087,0,0,1,899,145a83.516,83.516,0,0,1,13.05-27.75,64.833,64.833,0,0,1,22.5-19.35q13.65-7.2,32.85-7.2,22.5,0,38.85,11.4T1027.4,136.3Zm66-64.5V286h148.8V262H1121.9V187.9h111.3v-24H1121.9V95.8h119.4v-24Z" transform="translate(-87.1 -65.7)" fill="none" stroke="#f5f2f2" stroke-width="2"/>
</svg>
